<svg id="ios_illustration_semi_detached_house_01" xmlns="http://www.w3.org/2000/svg" width="429" height="240.001" viewBox="0 0 429 240.001">
  <path id="blue" d="M2437.146,5165.861a6.146,6.146,0,0,1-6.144-6.147v-39.288a6.145,6.145,0,0,1,6.144-6.146h131.87a6.145,6.145,0,0,1,6.144,6.146v39.288a6.146,6.146,0,0,1-6.144,6.147ZM2548,5075.527a6.145,6.145,0,0,1-6.144-6.147v-8.642a6.145,6.145,0,0,1,6.144-6.147h61.884a6.146,6.146,0,0,1,6.144,6.147v8.642a6.146,6.146,0,0,1-6.144,6.147Zm-96.431-15.59a6.145,6.145,0,0,1-6.144-6.147v-8.642a6.146,6.146,0,0,1,6.144-6.147h5.609a6.146,6.146,0,0,1,6.144,6.147v8.642a6.145,6.145,0,0,1-6.144,6.147Z" transform="translate(-2311.152 -4944.703)" fill="#1e86d1"/>
  <path id="yellow" d="M4292.144,3088.806a6.146,6.146,0,0,1-6.144-6.147v-29.577a6.146,6.146,0,0,1,6.144-6.147h59.835a6.145,6.145,0,0,1,6.144,6.147v29.577a6.145,6.145,0,0,1-6.144,6.147Zm353.582-25.39a6.145,6.145,0,0,1-6.144-6.146v-25.123a6.146,6.146,0,0,1,6.144-6.147h25.11a6.146,6.146,0,0,1,6.144,6.147v25.123a6.145,6.145,0,0,1-6.144,6.146Z" transform="translate(-4283.506 -2848.805)" fill="#fbc02d"/>
  <path id="strok" d="M24.353,230.843V193.2H17.72v37.64ZM277.791,144.47h43.164v72.008H234.628V144.47h43.164Zm-87.418,4.364H153.753v63.28h36.621Zm-36.621-4.364h40.983v72.008H108.409V144.47h45.344Zm-4.362,4.364H112.77v63.28h36.621Zm126.219,63.28v-63.28H238.99v63.28Zm40.983-63.28H279.972v63.28h36.621ZM212.365,31.912,89.417,102.92l3.271,5.728,119.586-69.1V31.912ZM94.505,112.649V230.934H212.365V196.567h4.362v34.367H332.768V125.286l-120.4-69.644V44.55Zm-4.362,76.19V112.921L83.51,101.375l1.908-1.091L212.365,26.912V1h4.362V40.459q63.246,36.549,126.492,73.281l-6.088,10.638v64.462h75.513v.182h1.727v41.914H429V235.3H0v-4.364H13.449V193.2h0v-4.364ZM216.635,53.188l117.314,67.826,3.271-5.728L216.635,45.459v7.728Zm20.173,58.1h51.16v23.093h-53.25V111.285h2.09Zm-46.435-6.092H145.756v14.365h44.617Zm-46.8-4.364h51.16v23.093h-53.25V100.829h2.09Zm140.032,14.729H238.99v14.365h44.617Zm-66.972,59.188h-4.362V131.287h4.362Zm0-65.189h-4.362V66.1h4.362ZM28.715,230.843h6.634V193.112H28.715Zm21.9,0h6.543V193.112H50.615Zm21.809,0h6.634V193.112H72.424Zm276.337,0h6.634V193.112h-6.634Zm21.9,0H377.2V193.112h-6.543Zm21.809,0H399.1V193.112H392.47Zm17.538,0V193.2h-6.634v37.64Zm-43.709,0V193.2h-6.634v37.64Zm21.9,0V193.2h-6.634v37.64Zm-43.709,0V193.2h-6.634v37.64Zm-254.438,0V193.2H83.419v37.64Zm-43.709,0V193.2H39.71v37.64Zm21.9,0V193.2H61.61v37.64Z" transform="translate(0 -1)" fill="#2b2a29"/>
</svg>
