<svg id="ios_illustration_student_01" xmlns="http://www.w3.org/2000/svg" width="429" height="344" viewBox="0 0 429 344">
  <path id="blue" d="M-14234,12159.35c0-26.246,14.232-47.522,31.788-47.522s31.787,21.276,31.787,47.522-14.231,47.522-31.787,47.522S-14234,12185.6-14234,12159.35Zm146.829-54.469a6.145,6.145,0,0,1-6.144-6.146v-76.34a6.145,6.145,0,0,1,6.144-6.146h117.267a6.145,6.145,0,0,1,6.145,6.146v76.34a6.145,6.145,0,0,1-6.145,6.146Z" transform="translate(14257.148 -11897.344)" fill="#1e86d1"/>
  <path id="yellow" d="M-15441.789,10391.4a6.145,6.145,0,0,1-6.144-6.146v-32.958a6.145,6.145,0,0,1,6.144-6.146h74.261a6.144,6.144,0,0,1,6.144,6.146v32.958a6.144,6.144,0,0,1-6.144,6.146Zm-141.13-100.409a9.619,9.619,0,0,1-9.616-9.621,9.619,9.619,0,0,1,9.616-9.62h56.452a9.618,9.618,0,0,1,9.616,9.62,9.618,9.618,0,0,1-9.616,9.621Zm-46.346-27.524a14.739,14.739,0,0,1-14.736-14.742,14.738,14.738,0,0,1,14.736-14.742h6.144a14.738,14.738,0,0,1,14.736,14.742,14.739,14.739,0,0,1-14.736,14.742Z" transform="translate(15753.788 -10047.396)" fill="#fbc02d"/>
  <path id="strok" d="M205.032-360.048,89.445-293.24l3.3,5.734,112.287-64.81,112.287,64.81,3.3-5.734-115.5-66.808Zm122.447,324.1V-73.561h-6.6v37.618ZM382.1-73.735h-6.6v37.791h6.6ZM360.218-35.943V-73.735h-6.6v37.791Zm-21.8,0V-73.735h-6.6v37.791ZM319.837-78.079H395.65v.174h1.737v41.961H427V-31.6H-2v-4.344H38.468V-67.393c-7.382-.7-13.982-5.734-18.758-13.466-4.95-8.08-8.076-19.113-8.076-31.276s3.126-23.283,8.076-31.276c5.211-8.34,12.418-13.553,20.582-13.553,8.076,0,15.371,5.126,20.582,13.553,4.95,8.08,8.076,19.113,8.076,31.276s-3.126,23.283-8.076,31.276C56.271-73.387,49.932-68.522,42.9-67.48v31.536H89.1V-284.986L83.453-294.8l1.911-1.042L205.032-365q60.7,35.055,121.405,70.2l-6.6,11.468V-78.079Zm73.208,42.135V-73.561h-6.6v37.618Zm-43.682,0V-73.561h-6.6v37.618Zm21.884,0V-73.561h-6.6v37.618ZM127.047-215.7v39.008a9.37,9.37,0,0,1,4.689,4,17.892,17.892,0,0,1,2.432,9.209,27.269,27.269,0,0,1-.347,3.909,16.247,16.247,0,0,1-1.129,3.649l-.608,1.3H117.755l-.608-1.3a16.247,16.247,0,0,1-1.129-3.649,19.265,19.265,0,0,1-.347-3.909A17.659,17.659,0,0,1,118.1-172.7a8.962,8.962,0,0,1,4.689-4V-217.7h-.087l.087-.7v-.261h0l.261-3.128L202.426-241.5h1.042l83.542,19.547.347,4.083-30.742,12.337v37.01H149.279v-36.923l-22.232-10.338Zm0,44.047v12.771h2.084a8.139,8.139,0,0,0,.347-1.39,17.52,17.52,0,0,0,.261-3.128,13.691,13.691,0,0,0-1.737-6.95,8.543,8.543,0,0,0-1.042-1.3Zm-4.342,12.771v-12.771a8.541,8.541,0,0,0-1.042,1.3,13.691,13.691,0,0,0-1.737,6.95,19,19,0,0,0,.261,3.128c.087.521.261.956.347,1.39h2.171ZM38.642-71.737V-95.8L23.184-113.437,26.4-116.3l12.158,13.9V-128.12H42.9v33.969l9.813-17.636,3.821,2.085L42.984-85.2V-72c5.471-.956,10.508-5.126,14.242-11.207,4.6-7.385,7.382-17.636,7.382-29.017s-2.866-21.632-7.382-29.017c-4.429-7.124-10.334-11.468-16.847-11.468s-12.505,4.344-16.847,11.468c-4.6,7.385-7.382,17.636-7.382,29.017S19.016-90.589,23.532-83.2c3.995,6.429,9.292,10.686,15.111,11.381ZM93.526-282.988V-35.943H315.495V-283.51l-110.55-63.854ZM165.866-148.2H257.05v4.344a12.463,12.463,0,0,0-8.858,3.649,12.473,12.473,0,0,0-3.647,8.861,12.473,12.473,0,0,0,3.647,8.861,12.463,12.463,0,0,0,8.858,3.649v4.344H165.866a16.879,16.879,0,0,1-11.9-4.952,16.892,16.892,0,0,1-4.95-11.9,16.892,16.892,0,0,1,4.95-11.9A16.879,16.879,0,0,1,165.866-148.2Zm79.895,4.344H165.866a12.463,12.463,0,0,0-8.858,3.649,12.473,12.473,0,0,0-3.647,8.861,12.473,12.473,0,0,0,3.647,8.861,12.463,12.463,0,0,0,8.858,3.649h79.895l-.608-.608a16.892,16.892,0,0,1-4.95-11.9,16.892,16.892,0,0,1,4.95-11.9Zm6.426-28.843v-31.449H153.534V-172.7Zm.608-35.793,26.487-10.686-76.421-17.9L130-219l22.579,10.512Z" transform="translate(2 365)" fill="#08283e"/>
</svg>
