<svg id="ios_illustration_semi_detached_bungalow_01" xmlns="http://www.w3.org/2000/svg" width="429" height="237.999" viewBox="0 0 429 237.999">
  <path id="blue" d="M-13901.216,14884.847a6.14,6.14,0,0,1-6.144-6.137v-72.04a6.14,6.14,0,0,1,6.144-6.137h34.993a6.14,6.14,0,0,1,6.144,6.137v72.04a6.14,6.14,0,0,1-6.144,6.137Zm-112.726-36.286a6.141,6.141,0,0,1-6.145-6.138v-35.753a6.14,6.14,0,0,1,6.145-6.137h81.116a6.14,6.14,0,0,1,6.144,6.137v35.753a6.141,6.141,0,0,1-6.144,6.138Zm-83.254,0a6.14,6.14,0,0,1-6.144-6.138v-35.753a6.14,6.14,0,0,1,6.144-6.137h31.254a6.14,6.14,0,0,1,6.144,6.137v35.753a6.141,6.141,0,0,1-6.144,6.138Zm-91.8-61.457c0-15.325,8.312-27.749,18.564-27.749s18.565,12.424,18.565,27.749-8.312,27.748-18.565,27.748S-14189,14802.429-14189,14787.1Zm118.6-30.217a6.141,6.141,0,0,1-6.144-6.137v-16.365a6.141,6.141,0,0,1,6.144-6.137h31.254a6.142,6.142,0,0,1,6.145,6.137v16.365a6.142,6.142,0,0,1-6.145,6.137Z" transform="translate(14202.441 -14646.848)" fill="#1e86d1"/>
  <path id="yellow" d="M6.144,0H64.377a6.14,6.14,0,0,1,6.144,6.137V31.751a6.14,6.14,0,0,1-6.144,6.137H6.144A6.14,6.14,0,0,1,0,31.751V6.137A6.14,6.14,0,0,1,6.144,0Z" transform="translate(354.473 200.111)" fill="#fbc02d"/>
  <path id="strok" d="M159.29,84H108.73v22.774h52.626V84H159.29Zm9.519-57.024L52.871,93.86l-3.233-5.649L168.81,19.353ZM53.14,98.612l11.046-6.366v134.58H32.036V197.686c7.274-.717,13.83-5.649,18.59-13.27,4.939-7.98,7.993-18.829,7.993-30.843s-3.053-22.953-7.993-30.843c-5.119-8.249-12.3-13.359-20.3-13.359s-15.177,5.111-20.3,13.359c-4.939,7.98-7.993,18.829-7.993,30.843s3.053,22.953,7.993,30.843c4.58,7.352,10.777,12.194,17.781,13.18v29.229H-2v4.3H427V189.617h0v-4.3H373.117v-50.12l7.184-.09,1.437-3.766-30.893-27.795-1.437-.538H289.688l-3.772-.986L175.1,38.092V-1h-4.311V13.346Q107.338,49.927,43.98,86.6l7.544,13,1.886-1.076Zm15.267-8.787L170.516,30.919v23.67h2.155v.269l.449-.269h.09l104.444,60.251V226.826H174.827V191.859h-4.311v34.967H68.407v-137ZM174.737,50.644V43.113l112.526,64.914-3.233,5.649Zm-4.311,119.875h4.311V127.662h-4.311Zm0-64.286h4.311V63.376h-4.311Zm56.847,35.326H184.615V212.57H269.93V141.559H227.273Zm2.155,66.707v-62.4H265.62v62.4Zm-40.5-62.4h36.192v62.4H188.926ZM112.951,88.3h44.094v14.166H112.951Zm-69.06,61.238L31.857,163.257V137.883H27.546v33.533l-9.7-17.484-3.772,2.062L27.546,180.2v13c-5.388-.986-10.328-5.021-14.1-11.028-4.49-7.262-7.364-17.394-7.364-28.6s2.784-21.339,7.364-28.6c4.311-6.993,10.238-11.3,16.7-11.3s12.3,4.3,16.7,11.3c4.49,7.262,7.364,17.394,7.364,28.6s-2.784,21.339-7.364,28.6c-3.951,6.366-9.16,10.49-14.908,11.208v-23.67l15.267-17.394-3.233-2.779Zm324.646-14.256V185.4H349.588V160.209H281.875v-23.85Zm-20.3-27.884,26.223,23.581-92.589,1.166V117.351l3.682,2.152h0l7-12.1h55.679ZM421.7,226.916h-5.837V189.8h6.556v37.119Zm-10.058,0h-6.556V189.707h6.556Zm-10.777,0H394.4V189.8h6.556v37.119Zm-10.777,0h-6.556V189.707h6.556Zm-10.777,0h-6.376V189.8h6.376Zm-10.777,0h-6.556V189.707h6.556Zm-10.777,0h-6.466V189.8h6.556v37.119Zm-48.495,0v-62.4h36.192v62.4Zm-4.311-62.4v62.4h-22.9v-62.4ZM159.38,141.739H76.22v71.011h85.315V141.739Zm-38.347,4.3h36.192v62.4H121.033Zm-40.5,0h36.192v62.4H80.531Z" transform="translate(2 1)" fill="#08283e"/>
</svg>
