<svg id="ios_illustration_flat_01" xmlns="http://www.w3.org/2000/svg" width="429" height="150" viewBox="0 0 429 150">
  <path id="blue" d="M-14023.827,10656.164a6.127,6.127,0,0,1-6.145-6.109v-71.724a6.128,6.128,0,0,1,6.145-6.111h34.993a6.128,6.128,0,0,1,6.144,6.111v71.724a6.127,6.127,0,0,1-6.144,6.109Zm-159.027-41.972a6.127,6.127,0,0,1-6.145-6.11v-71.724a6.127,6.127,0,0,1,6.145-6.109h125.9a6.127,6.127,0,0,1,6.145,6.109v71.724a6.127,6.127,0,0,1-6.145,6.11Z" transform="translate(14311.252 -10506.164)" fill="#1e86d1"/>
  <path id="yellow" d="M-15853.872,9604.992a6.127,6.127,0,0,1-6.144-6.11v-19.216a6.127,6.127,0,0,1,6.144-6.109h47.638a6.127,6.127,0,0,1,6.143,6.109v19.216a6.126,6.126,0,0,1-6.143,6.11Zm-329.986,0a6.127,6.127,0,0,1-6.144-6.11v-35.773a6.127,6.127,0,0,1,6.144-6.109h23.418a6.126,6.126,0,0,1,6.144,6.109v35.773a6.126,6.126,0,0,1-6.144,6.11Z" transform="translate(16220.632 -9467.477)" fill="#fbc02d"/>
  <path id="strok" d="M95.4,19.26v122.2h178.64V127.136H109.521V55.5H319.409v85.87h14.4V19.167H95.5Zm182.97,122.2h36.613v-5.15H278.372Zm0-9.458h36.613v-5.15H278.372Zm-187.3-32.4V19.354H80.343V1H350.563V19.354H338.045V99.605h77.273v41.952H430v4.308H1v-4.308H14.459V104.007h0V99.7H91.167ZM338.139,15.046h8.188V5.4H84.767v9.645H338.139ZM150.369,59.9H113.756v62.928h36.613Zm164.616,0H278.372v62.647h36.613Zm-41.7,0H236.677v62.928H273.29Zm-40.942,0H195.735v62.928h36.613Zm-40.942,0H154.792v62.928h36.613Zm147.486,81.656h6.588V104.1h-6.588Zm10.918,0H356.4V104.007H349.81Zm10.918,0h6.588V104.1h-6.588Zm10.918,0h6.588V104.007h-6.588Zm10.918,0h6.588V104.1h-6.588Zm10.918,0h6.588V104.007h-6.588Zm10.918,0h6.588V104.1H404.4Zm-385.7,0h6.588V104.1H18.695Zm10.918,0H36.2V104.007H29.613Zm10.918,0h6.588V104.1H40.53Zm10.918,0h6.588V104.007H51.448Zm10.918,0h6.588V104.1H62.366Zm10.918,0h6.588V104.007H73.284Zm10.918,0h6.588V104.1H84.2Z" transform="translate(-1 -1)" fill="#08283e"/>
</svg>
