<svg id="ios_illustration_detached_house_01" xmlns="http://www.w3.org/2000/svg" width="429" height="203" viewBox="0 0 429 203">
  <path id="yellow" d="M6.144,0H373.082a6.144,6.144,0,0,1,6.144,6.143V22.882a6.144,6.144,0,0,1-6.144,6.143H6.144A6.144,6.144,0,0,1,0,22.882V6.143A6.144,6.144,0,0,1,6.144,0Z" transform="translate(8.192 173.975)" fill="#fbc02d"/>
  <path id="blue" d="M-14652.857,25382.049a6.146,6.146,0,0,1-6.145-6.145V25350a6.145,6.145,0,0,1,6.145-6.145h31.432a6.144,6.144,0,0,1,6.144,6.145v25.908a6.145,6.145,0,0,1-6.144,6.145Zm158.76-38.2a6.142,6.142,0,0,1-6.145-6.141v-30.541a6.144,6.144,0,0,1,6.145-6.143h31.432a6.143,6.143,0,0,1,6.144,6.143v30.541a6.142,6.142,0,0,1-6.144,6.141Zm-136.944-30.715a6.143,6.143,0,0,1-6.144-6.145v-11.842a6.144,6.144,0,0,1,6.144-6.145h31.431a6.145,6.145,0,0,1,6.145,6.145v11.842a6.144,6.144,0,0,1-6.145,6.145Z" transform="translate(14771.46 -25214.484)" fill="#1e86d1"/>
  <path id="strok" d="M174.475,125.834H130.811v63.179h43.664ZM258.157,103.1H301.3v71.858H215.014V103.1h43.143Zm-2.17,67.518V107.435H219.354v63.179Zm-81.078-86.09H130.29V98.844h44.619Zm158.249-1.649v64.394h75.435v.174h1.736V189.36H425V193.7H-4V189.36H9.455V151.609h0v-4.339H86.106V83.743L79.421,72.2q65.5-37.1,130.9-74.2L338.974,72.2l-6.163,10.588ZM90.706,83.57V189.36h35.678V121.494h52.345V189.36h150V83.917l-118.144-68.3ZM20.653,189.36V151.782h-6.6V189.36Zm319.8,0V151.782h-6.6V189.36Zm54.6-37.751h-6.6V189.36h6.6ZM373.176,189.36V151.609h-6.6V189.36Zm-21.789,0V151.609h-6.6V189.36Zm54.6,0V151.782h-6.6V189.36Zm-43.664,0V151.782h-6.6V189.36Zm21.875,0V151.782h-6.6V189.36Zm-359.12,0h6.6V151.609h-6.6Zm21.875,0h6.6V151.609h-6.6Zm21.789,0h6.6V151.609h-6.6Zm17.535,0V151.782h-6.6V189.36Zm-43.664,0V151.782h-6.6V189.36Zm21.875,0V151.782h-6.6V189.36Zm147.4-178.082L330.207,79.664l3.3-5.728L210.76,3.12l-125,70.816,3.3,5.728,121.7-68.994,1.042.607Zm-83.6,68.994h51.042v23H126.124v-23Zm168.753,27.25H260.414V170.7h36.633Z" transform="translate(4 2)" fill="#2b2a29"/>
</svg>
