<svg id="ios_illustration_studio_01" xmlns="http://www.w3.org/2000/svg" width="429" height="240" viewBox="0 0 429 240">
  <path id="blue" d="M-14114.076,8756.94a6.148,6.148,0,0,1-6.144-6.151v-7.043a6.148,6.148,0,0,1,6.144-6.152h35.527a6.148,6.148,0,0,1,6.145,6.152v7.043a6.148,6.148,0,0,1-6.145,6.151Zm-92.424-84.165c0-26.27,14.231-47.566,31.787-47.566s31.788,21.3,31.788,47.566-14.231,47.566-31.788,47.566S-14206.5,8699.046-14206.5,8672.775Zm216.9,6.79a6.147,6.147,0,0,1-6.144-6.15V8618.4a6.148,6.148,0,0,1,6.144-6.152h35.528a6.148,6.148,0,0,1,6.144,6.152v55.012a6.147,6.147,0,0,1-6.144,6.15Z" transform="translate(14236.373 -8522.602)" fill="#1e86d1"/>
  <path id="yellow" d="M-15406.721,6949.613a6.147,6.147,0,0,1-6.144-6.152v-16.583a6.148,6.148,0,0,1,6.144-6.152h56.63a6.148,6.148,0,0,1,6.144,6.152v16.583a6.147,6.147,0,0,1-6.144,6.152Zm-209.781-99.041a20.582,20.582,0,0,1,20.568-20.6,20.582,20.582,0,0,1,20.569,20.6,20.582,20.582,0,0,1-20.569,20.6A20.582,20.582,0,0,1-15616.5,6850.572Z" transform="translate(15748.861 -6717.371)" fill="#fbc02d"/>
  <path id="strok" d="M205.1,14.972,89.5,81.823l3.311,5.709L205.1,22.615,317.382,87.532l3.311-5.709-115.5-66.851Zm57.936,132.6H238.2v24.862h24.83Zm-112.1-18.785A20.109,20.109,0,1,0,165,134.678,19.809,19.809,0,0,0,150.932,128.785Zm119.09,11.694H231.214v38.858h38.808ZM93.548,92.044V245.672H126.93V236.1h20.507V186.7H112.952V110.645H189v11.51h10.208v8.287h14.622V167H199.212v8.287H189V186.8H151.759v49.392h20.507v9.576H315.543V91.584L205.005,27.68,93.548,92.136Zm226.317-.368V203.5h75.776v.184h1.747v41.989H427V250H-2v-4.328H38.463V214.18c-7.357-.645-13.978-5.709-18.76-13.444-4.966-8.011-8.093-19.153-8.093-31.308s3.127-23.3,8.093-31.308c5.15-8.379,12.415-13.536,20.6-13.536,8.093,0,15.358,5.157,20.6,13.536,4.966,8.011,8.093,19.153,8.093,31.308s-3.127,23.3-8.093,31.308c-4.6,7.459-10.943,12.339-17.932,13.352v31.584H89.226V90.11l-5.7-9.853,1.839-1.1L205.005,10Q265.7,45.083,326.394,80.258l-6.621,11.418Zm-135.275,23.3H117.274v67.4H184.59Zm24.738,19.705H199.12v27.9h10.208Zm-14.622-8.287h-4.874v44.475h4.874V126.39ZM296.6,88.453H257.791v38.858H296.6Zm-41.015-4.328h45.337v47.606H253.377V84.125Zm-26.669,52.026h45.337v47.606H226.708V136.151ZM38.463,209.761V185.727l-15.45-17.68,3.219-2.855,12.139,13.9V153.407h4.322v34.07l9.84-17.68,3.77,2.118-13.61,24.494v13.26c5.518-1.013,10.484-5.064,14.254-11.234,4.6-7.366,7.449-17.68,7.449-29.006,0-11.418-2.851-21.639-7.449-29.006-4.414-7.09-10.392-11.51-16.829-11.51-6.529,0-12.507,4.42-16.829,11.51-4.6,7.366-7.449,17.68-7.449,29.006,0,11.418,2.851,21.639,7.449,29.006,3.954,6.446,9.288,10.681,15.082,11.326Zm282.322,35.912h6.621V208.011h-6.621Zm10.943,0h6.621V207.919h-6.621Zm10.943,0h6.621V208.011h-6.621Zm10.943,0h6.621V207.919h-6.621Zm10.943,0h6.621V208.011h-6.621Zm10.943,0h6.621V207.919H375.5Zm10.943,0h6.621V208.011h-6.621Zm-218.592-5.157H131.344v5.157h36.509ZM150.932,124.457a24.5,24.5,0,0,1,17.1,7.09,24.173,24.173,0,0,1,7.081,17.127,24.564,24.564,0,0,1-7.081,17.127,24.109,24.109,0,0,1-17.1,7.09,24.5,24.5,0,0,1-17.1-7.09,24.172,24.172,0,0,1-7.081-17.127,24.564,24.564,0,0,1,7.081-17.127A24.109,24.109,0,0,1,150.932,124.457ZM289.61,95.543H264.78v24.862h24.83Zm-27.037-4.328h31.359v33.517H260.458V91.215h2.115ZM235.9,143.241h31.359v33.518H233.789V143.241H235.9Z" transform="translate(2 -10)" fill="#08283e"/>
</svg>
