<svg id="ios_illustration_terraced_house_01" xmlns="http://www.w3.org/2000/svg" width="889" height="212.001" viewBox="0 0 889 212.001">
  <path id="blue" d="M2591.1,7398.2a6.155,6.155,0,0,0,6.144-6.167v-71.055a6.155,6.155,0,0,0-6.144-6.167H2544.44a6.155,6.155,0,0,0-6.144,6.167v71.055a6.155,6.155,0,0,0,6.144,6.167Zm77.733,0a6.155,6.155,0,0,0,6.144-6.167V7369.56a6.156,6.156,0,0,0-6.144-6.167h-55.384a6.155,6.155,0,0,0-6.144,6.167v22.479a6.155,6.155,0,0,0,6.144,6.167Zm-192.151-57.513c0-18.979-10.226-34.365-22.839-34.365S2431,7321.712,2431,7340.691s10.226,34.365,22.839,34.365S2476.68,7359.67,2476.68,7340.691ZM2595.461,7280a6.155,6.155,0,0,0,6.144-6.167v-8.669a6.156,6.156,0,0,0-6.144-6.167h-55.384a6.155,6.155,0,0,0-6.144,6.167v8.669a6.155,6.155,0,0,0,6.144,6.167Z" transform="translate(-2421.029 -7198.449)" fill="#1e86d1"/>
  <path id="yellow" d="M114.863,0H6.144A6.155,6.155,0,0,0,0,6.167V53.894a6.155,6.155,0,0,0,6.144,6.167H114.863a6.155,6.155,0,0,0,6.144-6.167V6.167A6.155,6.155,0,0,0,114.863,0Z" transform="translate(204.794 98.85)" fill="#fbc02d"/>
  <path id="strok" d="M2570,7686h889v-4.362H2913.532V7633h.278v-49.1h-54.943v-56.527l57.625,18.657-.092-15.872-1.48-.464L2747.038,7474c-40.388,23.371-81.415,47.206-121.091,70.257l-.173.1,7.585,13.273,3.607-2.042.093-.093v126.143H2604.5v-29.7a18.509,18.509,0,0,0,2.734-.449,19.655,19.655,0,0,0,2.645-.844,21.593,21.593,0,0,0,2.545-1.219,24.014,24.014,0,0,0,2.435-1.572,29.391,29.391,0,0,0,4.495-4.113,38.313,38.313,0,0,0,3.922-5.262,46.87,46.87,0,0,0,3.365-6.6,57.265,57.265,0,0,0,2.532-7.556,65.655,65.655,0,0,0,1.6-8.322,71.9,71.9,0,0,0,0-17.831,65.293,65.293,0,0,0-1.6-8.318,56.913,56.913,0,0,0-2.532-7.534,47.121,47.121,0,0,0-3.365-6.586,37.034,37.034,0,0,0-4.262-5.642,28.369,28.369,0,0,0-4.93-4.267,23.333,23.333,0,0,0-2.675-1.558,20.864,20.864,0,0,0-2.793-1.143,19.4,19.4,0,0,0-2.895-.7,18.652,18.652,0,0,0-2.98-.24,18.938,18.938,0,0,0-3.007.24,19.427,19.427,0,0,0-2.907.7,20.767,20.767,0,0,0-2.794,1.143,23.086,23.086,0,0,0-2.668,1.558,26.176,26.176,0,0,0-2.53,1.95,30.3,30.3,0,0,0-2.378,2.317,37.457,37.457,0,0,0-4.249,5.642,46.948,46.948,0,0,0-3.365,6.6,57.349,57.349,0,0,0-2.532,7.556,65.68,65.68,0,0,0-1.6,8.322,71.9,71.9,0,0,0,0,17.832,65.345,65.345,0,0,0,1.6,8.317,56.944,56.944,0,0,0,2.532,7.535,47.169,47.169,0,0,0,3.365,6.585,37.513,37.513,0,0,0,3.767,5.13,29.255,29.255,0,0,0,4.3,4.024,24.321,24.321,0,0,0,2.326,1.557,21.889,21.889,0,0,0,2.428,1.232,20.057,20.057,0,0,0,2.52.891,18.987,18.987,0,0,0,2.6.532v29.8H2570V7686Zm339-52.908v48.638H2641.129l.277-.092V7552.99l106.186-61.54,106.926,34.622v14.294h-90.647v43.625h-7.955v49.1H2909Zm-306.442-66.551a14.577,14.577,0,0,1,2.4.2,15.29,15.29,0,0,1,2.346.592,17.877,17.877,0,0,1,4.465,2.282,23.827,23.827,0,0,1,4.065,3.622,32.018,32.018,0,0,1,3.554,4.813,42.166,42.166,0,0,1,3.107,6.081,52.214,52.214,0,0,1,2.327,6.995,61.22,61.22,0,0,1,1.46,7.743,68.09,68.09,0,0,1,.506,8.326,66.66,66.66,0,0,1-.519,8.326,61.464,61.464,0,0,1-1.481,7.744,53.737,53.737,0,0,1-2.331,6.995,44.038,44.038,0,0,1-3.068,6.081,32.371,32.371,0,0,1-3.229,4.42,24.985,24.985,0,0,1-3.662,3.446,19.274,19.274,0,0,1-4.009,2.367,15.823,15.823,0,0,1-4.269,1.184v-24.04l15.447-17.729-3.238-2.877.093-.186-12.209,14.016v-25.8h-4.347V7625.3l-9.8-17.728-3.792,2.134,13.6,24.6v13.273a16.036,16.036,0,0,1-3.995-1.324,19.9,19.9,0,0,1-3.752-2.376,25.829,25.829,0,0,1-3.44-3.334,33.2,33.2,0,0,1-3.058-4.2,42.19,42.19,0,0,1-3.107-6.081,52.237,52.237,0,0,1-2.327-6.995,61.244,61.244,0,0,1-1.46-7.744,68.084,68.084,0,0,1-.506-8.326,66.666,66.666,0,0,1,.519-8.326,61.467,61.467,0,0,1,1.481-7.743,53.676,53.676,0,0,1,2.331-6.995,44.01,44.01,0,0,1,3.068-6.081,33.536,33.536,0,0,1,3.593-4.813,24.241,24.241,0,0,1,4.061-3.622,19.083,19.083,0,0,1,2.179-1.317,16.727,16.727,0,0,1,2.264-.964,15.165,15.165,0,0,1,2.337-.592A14.519,14.519,0,0,1,2602.558,7566.542Zm164.459,21.813v40.376h-6.567v-40.376Zm10.915,0v40.376h-6.567v-40.376Zm10.915,0v40.376h-6.567v-40.376Zm10.915,0v40.376h-6.568v-40.376Zm11.1,0v40.376h-6.567v-40.376Zm10.73,0v40.376h-6.567v-40.376Zm22.2,0v40.376h-6.567v-40.376Zm10.822,0v40.376h-6.567v-40.376Zm11.007,0v40.376h-6.567v-.093h-.093v-40.376h6.567v.093Zm10.914,0v40.376h-6.752v-40.469h6.567v.093Zm10.915,0v40.376h-6.567v-.093h-.093v-40.376h6.567v.093Zm10.915,0v40.376h-6.567v-40.376Zm10.915,0v40.376h-6.752v-40.376h6.752Zm-76.587-.093v40.376h-6.567v-40.376Zm21.922-43.625V7583.9h-86.3v-39.263Zm-107.574-57.919L2634.932,7551.6l-3.33-5.755,115.806-67.2v.093l164.552,54.671.092,6.776-165.014-53.464Zm16.742,180.627h53.278v-23.113H2763.78v23.113Zm48.931-18.75v14.387h-44.583v-14.387Zm-158.354,18.564h86.3v-72.214h-86.3v72.214Zm40.976-67.851V7662.8H2658.7v-63.488Zm40.976,0V7662.8h-36.629v-63.488Zm-49.023-35.829h53.278v-23.112h-53.278v23.112Zm48.931-18.75v14.387h-44.583v-14.387Z" transform="translate(-2569.999 -7474)" fill="#08283e"/>
</svg>
