<svg id="ios_illustration_detached_bungalow_01" xmlns="http://www.w3.org/2000/svg" width="429" height="200" viewBox="0 0 429 200">
  <path id="blue" d="M14696.145,11490.678a6.168,6.168,0,0,1-6.144-6.194v-71.455a6.169,6.169,0,0,1,6.144-6.194h55.385a6.17,6.17,0,0,1,6.143,6.194v71.455a6.169,6.169,0,0,1-6.143,6.194Zm176.123-14.183a6.169,6.169,0,0,1-6.143-6.2v-48.115a6.169,6.169,0,0,1,6.143-6.194h61.171a6.17,6.17,0,0,1,6.145,6.194v48.115a6.17,6.17,0,0,1-6.145,6.2Zm93.761-80.116c0-28.93,15.507-52.381,34.637-52.381s34.637,23.451,34.637,52.381-15.508,52.376-34.637,52.376S14966.028,11425.306,14966.028,11396.379Z" transform="translate(-14612.269 -11290.678)" fill="#1e86d1"/>
  <path id="yellow" d="M14696.145,11443.012a6.17,6.17,0,0,1-6.144-6.2v-12.656a6.17,6.17,0,0,1,6.144-6.2h56.363a6.17,6.17,0,0,1,6.145,6.2v12.656a6.17,6.17,0,0,1-6.145,6.2Zm161.7-38.69a6.169,6.169,0,0,1-6.144-6.194v-47.934a6.169,6.169,0,0,1,6.144-6.2h56.363a6.169,6.169,0,0,1,6.145,6.2v47.934a6.169,6.169,0,0,1-6.145,6.194Z" transform="translate(-14690.001 -11257.193)" fill="#fbc02d"/>
  <path id="strok" d="M390.712,71.813c7.925,0,14.959,5.027,20.034,13.285,4.9,7.9,7.836,18.761,7.836,30.7s-3.027,22.8-7.836,30.7c-4.541,7.271-10.6,12.118-17.452,13.106v29.084h29.295v4.219H0V151.616H0V147.4H53.068V97.486l-7.123-.09-1.425-3.68L74.973,66.068,76.4,65.53h58.856l3.74-.987L249.849,0Q309.017,34.47,368.1,68.851l-7.39,12.926-3.473-2.065V188.6h31.7V159.6c-7.212-.718-13.623-5.566-18.342-13.2-4.9-7.9-7.836-18.761-7.836-30.7s3.027-22.8,7.836-30.7c5.075-8.169,12.11-13.285,20.034-13.285Zm-13.534,39.946L389.02,125.4V100.179h4.185v33.393l9.527-17.325,3.651,2.065L393.116,142.37v13.016c5.342-.987,10.24-5.027,13.89-11.041,4.452-7.271,7.212-17.325,7.212-28.456s-2.76-21.185-7.212-28.456c-4.274-6.912-10.062-11.221-16.473-11.221-6.322,0-12.11,4.309-16.473,11.221-4.452,7.271-7.212,17.325-7.212,28.456s2.76,21.185,7.212,28.456c3.918,6.284,9.082,10.413,14.692,11.131V131.867l-15.048-17.325,3.205-2.783ZM57.342,97.576V147.4h18.7V122.352h66.781v-23.7l-85.39-1.077Zm89.575,24.776v66.337h23.329V141.113h-7.658V93.088h7.747V71.275h63.575V93.088h7.747v48.025h-7.747v47.576H353.137V77.289l-103.2-60.054L147.007,77.2v45.153Zm86.9-24.955h-3.205v39.5h6.411V97.4Zm-7.39,7.451V97.4H220.02v39.5h6.411Zm3.205-11.759V75.494H174.521V93.088h55.116Zm-52.178,7.451V136.8h6.411v-39.5h-6.411Zm-4.185,4.219V97.307h-6.411v39.5h6.411Zm1.247,36.266V188.51h55.116V141.023H174.521Zm19.945-4.219v-39.5h-6.411v39.5Zm4.185-39.5v39.5h6.411v-39.5Zm17.007,39.5v-39.5h-6.411v39.5ZM137.3,70.287l3.205,5.566L249.849,12.208,359.192,75.853l3.205-5.566L249.938,4.758Zm-60.014-.628L51.466,93.088l91.267,1.167V79.623l-3.651,2.154h0l-6.856-12.029H77.377Zm181.2,1.526H308.26V93.806H256.349V71.185Zm45.5,4.219H260.534V89.5h43.452ZM4.9,188.51h5.7V151.616H4.185V188.51Zm9.973,0h6.411V151.436H14.87Zm10.6,0h6.411V151.616H25.466Zm10.685,0h6.411V151.436H36.151Zm10.6,0h6.322V151.616H46.747Zm10.685,0h6.411V151.436H57.431Zm10.6,0h6.411V151.616H68.027Zm47.815,0V126.391H80.226V188.51Zm4.185-62.118V188.51h22.616V126.391ZM258.4,103.77h81.918v70.646H256.349V103.77H258.4Zm37.753,4.219H260.534v62.118h35.616Zm39.89,0H300.425v62.118h35.616Z" transform="translate(6.411)" fill="#08283e"/>
</svg>
