<svg id="ios_illustration_bathroom_01" xmlns="http://www.w3.org/2000/svg" width="120" height="102" viewBox="0 0 120 102">
  <path id="yellow" d="M5.357,0H26.786a5.34,5.34,0,0,1,5.357,5.324V25.766a5.34,5.34,0,0,1-5.357,5.324H5.357A5.34,5.34,0,0,1,0,25.766V5.324A5.34,5.34,0,0,1,5.357,0Z" transform="translate(62.241 59.305)" fill="#fbc02d"/>
  <path id="blue" d="M-16120.462-1520.925a3.418,3.418,0,0,1,3.429-3.407,3.418,3.418,0,0,1,3.429,3.407,3.418,3.418,0,0,1-3.429,3.407A3.418,3.418,0,0,1-16120.462-1520.925Zm-15.536-4.259a3.418,3.418,0,0,1,3.429-3.407,3.418,3.418,0,0,1,3.429,3.407,3.418,3.418,0,0,1-3.429,3.407A3.418,3.418,0,0,1-16136-1525.184Zm9.536-11.179a6.409,6.409,0,0,1,6.429-6.389,6.409,6.409,0,0,1,6.429,6.389,6.409,6.409,0,0,1-6.429,6.388A6.409,6.409,0,0,1-16126.462-1536.364Z" transform="translate(16214.528 1558.97)" fill="#1e86d1"/>
  <path id="strok" d="M-17501.143-3096a22.014,22.014,0,0,1-15.605-6.422,22.053,22.053,0,0,1-6.564-15.52v-11.88H-17533v-10.489h9.793v-35.641a21.772,21.772,0,0,1,6.459-15.52,22.3,22.3,0,0,1,15.605-6.529h31.641a4.965,4.965,0,0,1,3.66,1.5,5.09,5.09,0,0,1,1.506,3.639v5.244h-32.072v-5.244a5.072,5.072,0,0,1,.646-2.569h-5.488a19.415,19.415,0,0,0-13.777,5.673,19.2,19.2,0,0,0-5.7,13.7v35.641h53.6v-3.425h32.072v3.425H-17413v10.489h-7.533v11.88a21.77,21.77,0,0,1-6.457,15.52A22.3,22.3,0,0,1-17442.6-3096Zm-19.266-21.941a19.191,19.191,0,0,0,5.705,13.7,19.407,19.407,0,0,0,13.775,5.673h58.547a19.407,19.407,0,0,0,13.775-5.673,19.191,19.191,0,0,0,5.705-13.7v-11.88h-11.947v15.841h-31.963v-15.841h-53.6Zm56.18-19.372v20.657h26.691v-24.374h-26.691Zm29.381,0v4.816h19.373v-5.137h-19.373Zm-95.354,4.816h63.281v-5.137h-63.281Zm37.346-62.077a2.57,2.57,0,0,0-.754,1.819v2.569h26.689v-2.569a2.577,2.577,0,0,0-.752-1.819,2.6,2.6,0,0,0-1.83-.75h-21.525A3.057,3.057,0,0,0-17492.855-3194.577Zm52.3,38.21a6.785,6.785,0,0,1-2.045-4.816,6.427,6.427,0,0,1,2.045-4.816,6.86,6.86,0,0,1,4.842-2.034,6.5,6.5,0,0,1,4.844,2.034,6.792,6.792,0,0,1,2.045,4.816,6.435,6.435,0,0,1-2.045,4.816,6.679,6.679,0,0,1-4.844,2.033A6.5,6.5,0,0,1-17440.551-3156.367Zm1.828-7.813a4.2,4.2,0,0,0-1.184,3,4.387,4.387,0,0,0,1.184,3,4.242,4.242,0,0,0,3.014,1.177,4.433,4.433,0,0,0,3.014-1.177,4.189,4.189,0,0,0,1.184-3,4.189,4.189,0,0,0-1.184-3,4.238,4.238,0,0,0-3.014-1.177A4.242,4.242,0,0,0-17438.723-3164.18Zm-18.295,2.462a5.087,5.087,0,0,1-1.506-3.532,4.84,4.84,0,0,1,1.506-3.532,5.145,5.145,0,0,1,3.551-1.5,4.894,4.894,0,0,1,3.553,1.5,5.089,5.089,0,0,1,1.506,3.532,4.839,4.839,0,0,1-1.506,3.532,5.146,5.146,0,0,1-3.553,1.5A4.893,4.893,0,0,1-17457.018-3161.719Zm1.938-5.245a2.169,2.169,0,0,0-.646,1.606,2.168,2.168,0,0,0,.646,1.605,2.194,2.194,0,0,0,1.613.642,2.2,2.2,0,0,0,1.615-.642,2.175,2.175,0,0,0,.646-1.605,2.177,2.177,0,0,0-.646-1.606,2.2,2.2,0,0,0-1.615-.642A2.2,2.2,0,0,0-17455.08-3166.963Zm7.318-4.816a8.466,8.466,0,0,1-2.477-5.994,8.465,8.465,0,0,1,2.477-5.993,8.56,8.56,0,0,1,6.027-2.462,8.559,8.559,0,0,1,6.025,2.462,8.465,8.465,0,0,1,2.477,5.993,8.466,8.466,0,0,1-2.477,5.994,8.561,8.561,0,0,1-6.025,2.461A8.562,8.562,0,0,1-17447.762-3171.779Zm1.83-10.061a5.885,5.885,0,0,0-1.723,4.174,5.884,5.884,0,0,0,1.723,4.174,5.956,5.956,0,0,0,4.2,1.713,5.951,5.951,0,0,0,4.2-1.713,5.884,5.884,0,0,0,1.723-4.174,5.885,5.885,0,0,0-1.723-4.174,5.951,5.951,0,0,0-4.2-1.713A5.956,5.956,0,0,0-17445.932-3181.84Z" transform="translate(17533 3198.002)" fill="#08283e"/>
</svg>
