<svg xmlns="http://www.w3.org/2000/svg" width="120" height="100" viewBox="0 0 120 100">
  <g id="ios_illustration_hall_01" transform="translate(0 0)">
    <path id="yellow" d="M5.357,0H30.643A5.35,5.35,0,0,1,36,5.342V29.594a5.35,5.35,0,0,1-5.357,5.342H5.357A5.35,5.35,0,0,1,0,29.594V5.342A5.35,5.35,0,0,1,5.357,0Z" transform="translate(48.964 15.063)" fill="#fbc02d"/>
    <path id="blue" d="M-18923.518-5247.609a8.987,8.987,0,0,1-9-8.974,8.987,8.987,0,0,1,9-8.974h.215a8.987,8.987,0,0,1,9,8.974,8.987,8.987,0,0,1-9,8.974Zm15.535-6.785a4.012,4.012,0,0,1,4.02-4.006,4.013,4.013,0,0,1,4.018,4.006,4.013,4.013,0,0,1-4.018,4.007A4.012,4.012,0,0,1-18907.982-5254.394Zm-1.393-18.91a4.012,4.012,0,0,1,4.018-4.006,4.012,4.012,0,0,1,4.018,4.006,4.013,4.013,0,0,1-4.018,4.007A4.013,4.013,0,0,1-18909.375-5273.3Z" transform="translate(18938.41 5297.074)" fill="#1e86d1"/>
    <path id="stork" d="M-18620.254-5387h-27.564v-3.312a3,3,0,0,1,1-2.317,3.454,3.454,0,0,1,2.324-.994h9.742v-16H-18659v-2.759h24.244v-6.4h-18.486a5.277,5.277,0,0,1-3.764-1.545,5.243,5.243,0,0,1-1.551-3.753v-5.3h17.6a5.712,5.712,0,0,1-1-3.091v-5.3h17.27v5.3a5.156,5.156,0,0,1-1,3.091h17.49v5.3a5.243,5.243,0,0,1-1.551,3.753,5.277,5.277,0,0,1-3.764,1.545h-18.486v6.4h28.893V-5487h45.166v74.614h18.93v2.759h-92.988v16h9.742a3.019,3.019,0,0,1,2.324.994,3.172,3.172,0,0,1,1,2.317V-5387Zm-24.687-3.752a.574.574,0,0,0-.221.441v.663h23.58v-.663a.57.57,0,0,0-.223-.441.57.57,0,0,0-.441-.221h-22.252A.578.578,0,0,0-18644.941-5390.753Zm44.613-21.744h39.742v-71.854h-39.742Zm-55.461-11.479a3.125,3.125,0,0,0,.775,1.876,2.676,2.676,0,0,0,1.881.772h39.742a3.151,3.151,0,0,0,1.883-.772,2.663,2.663,0,0,0,.773-1.876v-2.648h-45.055Zm25.793-5.85a3.151,3.151,0,0,0,1.883-.772,2.664,2.664,0,0,0,.773-1.876v-2.649h-11.732v2.649a3.121,3.121,0,0,0,.773,1.876,2.677,2.677,0,0,0,1.883.772h6.42ZM-18636.416-5429.826Zm6.863-10.706a7.283,7.283,0,0,1-2.1-4.967,7.012,7.012,0,0,1,2.1-4.967,6.862,6.862,0,0,1,4.98-2.1,7.054,7.054,0,0,1,4.982,2.1,7.082,7.082,0,0,1,2.1,4.967,7.014,7.014,0,0,1-2.1,4.967,7.121,7.121,0,0,1-4.982,2.1A6.862,6.862,0,0,1-18629.553-5440.532Zm1.992-8.057a4.254,4.254,0,0,0-1.217,2.98,4.068,4.068,0,0,0,1.217,2.98,4.286,4.286,0,0,0,2.988,1.214,4.1,4.1,0,0,0,2.99-1.214,4.264,4.264,0,0,0,1.217-2.98,4.074,4.074,0,0,0-1.217-2.98,4.286,4.286,0,0,0-2.99-1.214A4.094,4.094,0,0,0-18627.561-5448.589Zm30.223,7.615a5.093,5.093,0,0,1-1.439-3.532,4.9,4.9,0,0,1,1.439-3.531,5.123,5.123,0,0,1,3.541-1.435,4.933,4.933,0,0,1,3.543,1.435,5.1,5.1,0,0,1,1.439,3.531,4.906,4.906,0,0,1-1.439,3.532,5.134,5.134,0,0,1-3.543,1.435A4.927,4.927,0,0,1-18597.338-5440.974Zm1.77-4.967a2.242,2.242,0,0,0-.664,1.656,2.242,2.242,0,0,0,.664,1.656,2.26,2.26,0,0,0,1.66.662,2.258,2.258,0,0,0,1.662-.662,2.249,2.249,0,0,0,.664-1.656,2.249,2.249,0,0,0-.664-1.656,2.258,2.258,0,0,0-1.662-.662A2.26,2.26,0,0,0-18595.568-5445.941Zm-51.365,2.98a8.749,8.749,0,0,1-2.545-6.181,8.748,8.748,0,0,1,2.545-6.181,8.8,8.8,0,0,1,6.2-2.539,8.8,8.8,0,0,1,6.2,2.539,8.742,8.742,0,0,1,2.547,6.181,8.742,8.742,0,0,1-2.547,6.181,8.8,8.8,0,0,1-6.2,2.539A8.8,8.8,0,0,1-18646.934-5442.961Zm1.992-10.375a5.832,5.832,0,0,0-1.77,4.194,5.649,5.649,0,0,0,1.77,4.195,5.865,5.865,0,0,0,4.207,1.766,5.675,5.675,0,0,0,4.207-1.766,5.827,5.827,0,0,0,1.771-4.195,5.642,5.642,0,0,0-1.771-4.194,5.86,5.86,0,0,0-4.207-1.766A5.68,5.68,0,0,0-18644.941-5453.336Zm52.031-1.1v-25.5H-18568v25.5Zm2.656-2.648h19.482v-20.089h-19.482Zm-41.18.883a5.1,5.1,0,0,1-1.441-3.532,4.9,4.9,0,0,1,1.441-3.532,5.125,5.125,0,0,1,3.541-1.435,4.935,4.935,0,0,1,3.543,1.435,5.1,5.1,0,0,1,1.439,3.532,4.906,4.906,0,0,1-1.439,3.532,5.133,5.133,0,0,1-3.543,1.435A4.927,4.927,0,0,1-18631.434-5456.206Zm1.881-5.078a2.242,2.242,0,0,0-.664,1.656,2.241,2.241,0,0,0,.664,1.655,2.259,2.259,0,0,0,1.66.663,2.256,2.256,0,0,0,1.66-.663,2.241,2.241,0,0,0,.664-1.655,2.242,2.242,0,0,0-.664-1.656,2.255,2.255,0,0,0-1.66-.662A2.258,2.258,0,0,0-18629.553-5461.283Z" transform="translate(18659 5487)" fill="#08283e"/>
  </g>
</svg>
