<svg id="ios_illustration_porch_01" xmlns="http://www.w3.org/2000/svg" width="120" height="102" viewBox="0 0 120 102">
  <path id="yellow" d="M5.357,0H79.393A5.327,5.327,0,0,1,84.75,5.3v8.9a5.327,5.327,0,0,1-5.357,5.3H5.357A5.327,5.327,0,0,1,0,14.193V5.3A5.327,5.327,0,0,1,5.357,0Z" transform="translate(17.625 75.943)" fill="#fbc02d"/>
  <path id="blue" d="M5.357,0H25.393A5.327,5.327,0,0,1,30.75,5.3V24.785a5.327,5.327,0,0,1-5.357,5.3H5.357A5.327,5.327,0,0,1,0,24.785V5.3A5.327,5.327,0,0,1,5.357,0Z" transform="translate(49.071 3.495)" fill="#1e86d1"/>
  <path id="strok" d="M36.561,11.47V49.787h21.4V11.47Zm21.4-2.7h28.5V6.181A2.589,2.589,0,0,0,85.7,4.346a2.618,2.618,0,0,0-1.419-.756H34.487a2.3,2.3,0,0,0-1.529.756,2.589,2.589,0,0,0-.764,1.835v2.59H57.963Zm2.73,2.7h-.546V49.787h21.4V11.47Zm23.585,0V49.787H96.4A5.048,5.048,0,0,1,100.11,51.3a5.11,5.11,0,0,1,1.529,3.67,5.361,5.361,0,0,1-1.529,3.778A5.231,5.231,0,0,1,96.4,60.257H96.07V100.3H119V103H-1v-2.7H21.93V60.257H21.6a5.048,5.048,0,0,1-3.712-1.511,5.11,5.11,0,0,1-1.529-3.67A5.361,5.361,0,0,1,17.89,51.3,5.231,5.231,0,0,1,21.6,49.787h12.12V11.47H28.7V6.181a4.933,4.933,0,0,1,1.529-3.67A5.3,5.3,0,0,1,34.05,1H83.841a5.048,5.048,0,0,1,3.712,1.511,5.11,5.11,0,0,1,1.529,3.67V11.47h-4.8ZM36.561,52.486H21.712a2.65,2.65,0,0,0-1.856.756,2.585,2.585,0,0,0,0,3.67,2.65,2.65,0,0,0,1.856.756H96.4a2.65,2.65,0,0,0,1.856-.756,2.585,2.585,0,0,0,0-3.67,2.65,2.65,0,0,0-1.856-.756H36.561Zm5.35,47.384v-39.5h-5.35v39.5Zm-8.08-39.5h-1.2V100.41h1.2Zm18.781,0v39.5h5.35v-39.5ZM65.5,99.87v-39.5h-5.35v39.5H65.5Zm19.982.54V60.365h-1.2V100.41ZM81.548,60.365H76.2v39.5h5.35ZM68.227,60.8V99.87h5.241V60.8Zm-43.567,0V99.87H29.9V60.8Zm63.439,0V99.87H93.34V60.8Zm-43.567,0V99.87h5.241V60.8Z" transform="translate(1 -1)" fill="#08283e"/>
</svg>
