<svg id="ios_illustration_kitchen_01" xmlns="http://www.w3.org/2000/svg" width="120" height="100" viewBox="0 0 120 100">
  <path id="yellow" d="M5.357,0H37.393A5.322,5.322,0,0,1,42.75,5.285V40.169a5.322,5.322,0,0,1-5.357,5.285H5.357A5.322,5.322,0,0,1,0,40.169V5.285A5.322,5.322,0,0,1,5.357,0Z" transform="translate(70.71 5.956)" fill="#fbc02d"/>
  <path id="blue" d="M-20912.605-2867.722a5.323,5.323,0,0,1-5.357-5.285v-16.068a5.323,5.323,0,0,1,5.357-5.286h15.107a5.322,5.322,0,0,1,5.357,5.286v16.068a5.322,5.322,0,0,1-5.357,5.285Zm72.43-31.871a2.9,2.9,0,0,1,2.893-2.907,2.9,2.9,0,0,1,2.893,2.907,2.9,2.9,0,0,1-2.893,2.907A2.9,2.9,0,0,1-20840.176-2899.593Z" transform="translate(20927.709 2960.375)" fill="#1e86d1"/>
  <path id="strok" d="M40.206,92.545V56.61H.929V92.545A2.9,2.9,0,0,0,1.8,94.578a2.986,2.986,0,0,0,2.061.856H37.277a2.986,2.986,0,0,0,2.061-.856A2.9,2.9,0,0,0,40.206,92.545ZM65.052,64.417V94.471H115.4V64.417ZM62.34,94.471V88.909H43.027v5.561Zm0-8.235V80.674H43.027v5.562Zm0-8.235V72.438H43.027V78Zm0-8.235V64.2H43.027v5.561ZM93.371.674H74.6V40.888h18.77ZM96.517-2H118V43.562H71.888V-2H96.517ZM115.288.674H96.517V40.888h18.77ZM93.8,72.438H74.6v13.8H93.8ZM84.8,61.529h6.4a2.637,2.637,0,0,0,1.844-.749,2.562,2.562,0,0,0,.759-1.818V56.4H82.2v2.567a2.562,2.562,0,0,0,.759,1.818A2.637,2.637,0,0,0,84.8,61.529Zm-4.557.107a5.5,5.5,0,0,1-.759-2.674V53.722H96.517v5.241a4.776,4.776,0,0,1-.759,2.674H118v35.4H40.206A6.056,6.056,0,0,1,37.06,98H3.642A6.1,6.1,0,0,1-.373,96.4,5.527,5.527,0,0,1-2,92.439V28.053A5.926,5.926,0,0,1-.373,24.1a5.69,5.69,0,0,1,4.014-1.6H37.06a6.1,6.1,0,0,1,4.014,1.6A5.527,5.527,0,0,1,42.7,28.053V61.636H80.242ZM73.19,69.765H96.517V88.909H71.888V69.765ZM40.1,53.722V27.947a2.9,2.9,0,0,0-.868-2.032,2.986,2.986,0,0,0-2.061-.856H3.75a2.986,2.986,0,0,0-2.061.856,2.9,2.9,0,0,0-.868,2.032V53.722Z" transform="translate(2 2)" fill="#08283e"/>
</svg>
