<svg id="ios_illustration_loung_01" xmlns="http://www.w3.org/2000/svg" width="120" height="102" viewBox="0 0 120 102">
  <path id="yellow" d="M5.357,0H37.393A5.374,5.374,0,0,1,42.75,5.391V40.973a5.374,5.374,0,0,1-5.357,5.391H5.357A5.374,5.374,0,0,1,0,40.973V5.391A5.374,5.374,0,0,1,5.357,0Z" transform="translate(66.425 6.83)" fill="#fbc02d"/>
  <path id="blue" d="M-17043.5-3258.082a2.472,2.472,0,0,1-2.465-2.48,2.473,2.473,0,0,1,2.465-2.48h14.785a2.473,2.473,0,0,1,2.465,2.48,2.472,2.472,0,0,1-2.465,2.48Zm61.5-17.144a4.622,4.622,0,0,1-4.607-4.637,4.621,4.621,0,0,1,4.607-4.636h10.5a4.621,4.621,0,0,1,4.607,4.636,4.622,4.622,0,0,1-4.607,4.637Z" transform="translate(17049.816 3357.117)" fill="#1e86d1"/>
  <path id="strok" d="M55.418,26.9a5.958,5.958,0,0,1,3.818,1.537,5.317,5.317,0,0,1,1.527,3.843v5.38H28.145V32.28a5.243,5.243,0,0,1,.655-2.635H22.473A19.555,19.555,0,0,0,8.509,35.464,19.809,19.809,0,0,0,2.727,49.518V91.569a5.156,5.156,0,0,1,2.618-.659h6.545a5.958,5.958,0,0,1,3.818,1.537,5.317,5.317,0,0,1,1.527,3.843v5.38H0V49.518A22.8,22.8,0,0,1,22.582,26.79H55.418ZM41.782,79.821V67.744a2.593,2.593,0,0,0-2.618-2.635H32.073a2.623,2.623,0,0,0-1.855.769,2.657,2.657,0,0,0-.764,1.867V99.036h3.382V91.02h80.945v8.015h3.382V67.744a2.657,2.657,0,0,0-.764-1.867,2.623,2.623,0,0,0-1.855-.769h-7.091a2.593,2.593,0,0,0-2.618,2.635V85.97l-63.055.11ZM119.891,0V48.749H72.764V0h47.127Zm-2.727,25.8H97.745V46h19.418ZM95.018,46V25.8H75.6V46Zm0-22.947V2.855H75.6v20.2Zm2.836-20.2v20.2h19.418V2.855ZM44.618,82.676H72V78.065H47.564a3.5,3.5,0,0,0-2.182.769,2.039,2.039,0,0,0-.764,1.318Zm30.109,0h27.382V80.7a2.714,2.714,0,0,0-.873-1.867,2.96,2.96,0,0,0-2.182-.769H74.618v4.611Zm30.327-19.544a19.738,19.738,0,0,0-13.309-5.16H74.836V75.429H99.273a6.988,6.988,0,0,1,3.055.769V67.963a6.038,6.038,0,0,1,1.527-3.843,5.131,5.131,0,0,1,1.309-.988ZM72,57.972H55.091a19.738,19.738,0,0,0-13.309,5.16,5.131,5.131,0,0,1,1.309.988,5.317,5.317,0,0,1,1.527,3.843V76.2a6.521,6.521,0,0,1,2.945-.769H72Zm36.327,4.611h6.327a5.958,5.958,0,0,1,3.818,1.537A5.317,5.317,0,0,1,120,67.963V102h-8.836V93.985H35.673V102H26.836V67.963a6.038,6.038,0,0,1,1.527-3.843,5.248,5.248,0,0,1,3.818-1.537h6.327l.655-.659a22.271,22.271,0,0,1,15.927-6.7H91.745a22.084,22.084,0,0,1,15.927,6.7ZM2.836,96.62v2.635H14.618V96.62a2.657,2.657,0,0,0-.764-1.867A2.623,2.623,0,0,0,12,93.985H5.455a2.623,2.623,0,0,0-1.855.769A2.657,2.657,0,0,0,2.836,96.62ZM55.527,29.974H33.6a2.623,2.623,0,0,0-1.855.769,2.657,2.657,0,0,0-.764,1.867v2.635H58.145V32.609a2.657,2.657,0,0,0-.764-1.867A2.623,2.623,0,0,0,55.527,29.974Z" fill="#08283e"/>
</svg>
