<svg id="ios_illustration_stairs_01" xmlns="http://www.w3.org/2000/svg" width="120" height="106" viewBox="0 0 120 106">
  <path id="yellow" d="M5.357,0H26.036a5.374,5.374,0,0,1,5.357,5.392V25.341a5.374,5.374,0,0,1-5.357,5.392H5.357A5.374,5.374,0,0,1,0,25.341V5.392A5.374,5.374,0,0,1,5.357,0Z" transform="translate(6.802 9.813)" fill="#fbc02d"/>
  <path id="blue" d="M5.357,0h7.5a5.374,5.374,0,0,1,5.357,5.392v7.333a5.374,5.374,0,0,1-5.357,5.392h-7.5A5.374,5.374,0,0,1,0,12.724V5.392A5.374,5.374,0,0,1,5.357,0Z" transform="translate(40.714)" fill="#1e86d1"/>
  <path id="strok" d="M22.027,2.758H2.74V22.833H22.027ZM1.315,98.279H29.151V76.219h0V48.312l.877-.331L120,10.368v90.779q-44.712,0-89.425-.221v.11H1.315ZM31.89,90.338h0v7.831l85.37.221V43.459H97.973V54.048H75.945V67.836H54.137l-.11,11.251H32V87.8h0v2.758ZM96.548,40.591h8.986V19.413l-18.74,7.831V51.18h8.329V40.591h1.425Zm11.726,0h8.986V14.45l-8.986,3.75ZM31.89,76.219h9.644V46.106L31.89,50.188Zm12.384,0h6.9l.11-11.251H62.356V37.5L44.274,45ZM65.1,64.968h8V51.18H84.055V28.348L64.986,36.289V64.968ZM32,0H55.452V25.59H30.685V0ZM52.712,2.758H33.425V22.833H52.712ZM1.315,0H24.767V25.59H0V0Z" transform="translate(0 4.853)" fill="#08283e"/>
</svg>
