<svg id="ios_illustration_dining_01" xmlns="http://www.w3.org/2000/svg" width="120" height="104" viewBox="0 0 120 104">
  <path id="yellow" d="M26.786,0H5.357A5.353,5.353,0,0,0,0,5.35V25.893a5.353,5.353,0,0,0,5.357,5.35H26.786a5.353,5.353,0,0,0,5.357-5.35V5.35A5.353,5.353,0,0,0,26.786,0Z" transform="translate(77.306)" fill="#fbc02d"/>
  <path id="blue" d="M38.25,0H5.357A5.353,5.353,0,0,0,0,5.35V34.881a5.353,5.353,0,0,0,5.357,5.35H38.25a5.353,5.353,0,0,0,5.357-5.35V5.35A5.353,5.353,0,0,0,38.25,0Z" transform="translate(40.552 43.868)" fill="#1e86d1"/>
  <path id="strok" d="M-16355.676-4554.425v-11.139h2.932v11.139h8.8v-11.139h3.148v11.139h8.8v-49.423c0-2.487-1.086-4.109-2.607-4.758a3.571,3.571,0,0,0-1.846-.433,3.575,3.575,0,0,0-1.846.433,5.2,5.2,0,0,0-2.605,4.758v27.9h-3.041v-13.085h-29.322v-16.655a5.4,5.4,0,0,0-1.52-3.785,5.256,5.256,0,0,0-3.8-1.514l-.217.108h-21.721a5.455,5.455,0,0,0-3.691,1.514,5.143,5.143,0,0,0-1.521,3.677v24.225h-27.691v7.03l-.107.108v17.2h-3.367v-29.2h31.059v-2.7h-33.773v12h-3.477v-26.928c0-2.487-1.086-4.11-2.605-4.758a3.583,3.583,0,0,0-1.848-.433,3.573,3.573,0,0,0-1.844.433,5.2,5.2,0,0,0-2.607,4.758v49.423h8.8v-12.221h3.584v12.221h8.8v-12.221h2.5v12.221h8.8v-22.6h-11.186v-1.622h24.977v24.225h8.8v-11.139h14.879v11.139h8.795v-24.117h20.525v2.7h-11.729v21.521Zm-83.945-14.924h-6.3v12.221h-3.365v-46.72a2.416,2.416,0,0,1,1.086-2.379,1.384,1.384,0,0,1,.65-.108,1.384,1.384,0,0,1,.652.108,2.413,2.413,0,0,1,1.086,2.379v29.633h1.3l.107-.108h4.779Zm17.375,12.221h-3.367v-12.221h-5.211v-4.975h8.578Zm22.371-11.139v11.139h-3.367v-48.45a2.812,2.812,0,0,1,.762-1.838,2.621,2.621,0,0,1,1.846-.757h21.828a2.625,2.625,0,0,1,1.846.757,2.607,2.607,0,0,1,.76,1.838v48.45h-3.367v-11.139Zm47.24,0h-5.648v11.139h-3.365v-16.114h9.014Zm5.971-7.678v18.817h-3.365v-24.225h-23.24v-4.975h26.605Zm10.969-30.389a2.413,2.413,0,0,1,1.086,2.379v46.719h-3.365v-11.139h-5.865v-4.867h5.756v-30.713a2.416,2.416,0,0,1,1.086-2.379,1.388,1.388,0,0,1,.652-.108A1.38,1.38,0,0,1-16335.7-4606.335Zm-24.543-23.468V-4655h-24.65v25.2Zm-2.715-2.6h-19.221v-19.9h19.221Zm30.842,2.6V-4655h-24.65v25.2Zm-2.715-2.6h-19.221v-19.9h19.221Z" transform="translate(16452.002 4658.425)" fill="#08283e"/>
</svg>
